<?xml version="1.0" encoding="UTF-8" standalone="no"?>
<!-- Generator: Adobe Illustrator 19.2.1, SVG Export Plug-In . SVG Version: 6.00 Build 0)  -->

<svg
   version="1.1"
   id="layer"
   x="0px"
   y="0px"
   viewBox="0 0 74.306999 74.306999"
   xml:space="preserve"
   sodipodi:docname="logo-square.svg"
   inkscape:version="1.2.2 (732a01da63, 2022-12-09)"
   width="74.306999"
   height="74.306999"
   xmlns:inkscape="http://www.inkscape.org/namespaces/inkscape"
   xmlns:sodipodi="http://sodipodi.sourceforge.net/DTD/sodipodi-0.dtd"
   xmlns="http://www.w3.org/2000/svg"
   xmlns:svg="http://www.w3.org/2000/svg"><defs
   id="defs23"><inkscape:path-effect
   effect="powerclip"
   id="path-effect705"
   is_visible="true"
   lpeversion="1"
   inverse="true"
   flatten="false"
   hide_clip="false"
   message="Use fill-rule evenodd on &lt;b&gt;fill and stroke&lt;/b&gt; dialog if no flatten result after convert clip to paths." />
	
	
	
	
	
	
	
<filter
   style="color-interpolation-filters:sRGB"
   inkscape:label="Drop Shadow"
   id="filter563"
   x="0"
   y="0"
   width="1"
   height="1"><feFlood
     flood-opacity="0.498039"
     flood-color="rgb(255,255,255)"
     result="flood"
     id="feFlood553" /><feComposite
     in="flood"
     in2="SourceGraphic"
     operator="in"
     result="composite1"
     id="feComposite555" /><feGaussianBlur
     in="composite1"
     stdDeviation="0"
     result="blur"
     id="feGaussianBlur557" /><feOffset
     dx="0"
     dy="0"
     result="offset"
     id="feOffset559" /><feComposite
     in="SourceGraphic"
     in2="offset"
     operator="over"
     result="composite2"
     id="feComposite561" /></filter><filter
   style="color-interpolation-filters:sRGB"
   inkscape:label="Drop Shadow"
   id="filter563-2"
   x="0"
   y="0"
   width="1"
   height="1"><feFlood
     flood-opacity="0.498039"
     flood-color="rgb(255,255,255)"
     result="flood"
     id="feFlood553-1" /><feComposite
     in="flood"
     in2="SourceGraphic"
     operator="in"
     result="composite1"
     id="feComposite555-5" /><feGaussianBlur
     in="composite1"
     stdDeviation="0"
     result="blur"
     id="feGaussianBlur557-6" /><feOffset
     dx="0"
     dy="0"
     result="offset"
     id="feOffset559-4" /><feComposite
     in="SourceGraphic"
     in2="offset"
     operator="over"
     result="composite2"
     id="feComposite561-9" /></filter><filter
   style="color-interpolation-filters:sRGB"
   inkscape:label="Drop Shadow"
   id="filter563-6"
   x="0"
   y="0"
   width="1"
   height="1"><feFlood
     flood-opacity="0.498039"
     flood-color="rgb(255,255,255)"
     result="flood"
     id="feFlood553-0" /><feComposite
     in="flood"
     in2="SourceGraphic"
     operator="in"
     result="composite1"
     id="feComposite555-3" /><feGaussianBlur
     in="composite1"
     stdDeviation="0"
     result="blur"
     id="feGaussianBlur557-9" /><feOffset
     dx="0"
     dy="0"
     result="offset"
     id="feOffset559-0" /><feComposite
     in="SourceGraphic"
     in2="offset"
     operator="over"
     result="composite2"
     id="feComposite561-0" /></filter><filter
   style="color-interpolation-filters:sRGB"
   inkscape:label="Drop Shadow"
   id="filter563-2-6"
   x="0"
   y="0"
   width="1"
   height="1"><feFlood
     flood-opacity="0.498039"
     flood-color="rgb(255,255,255)"
     result="flood"
     id="feFlood553-1-6" /><feComposite
     in="flood"
     in2="SourceGraphic"
     operator="in"
     result="composite1"
     id="feComposite555-5-6" /><feGaussianBlur
     in="composite1"
     stdDeviation="0"
     result="blur"
     id="feGaussianBlur557-6-2" /><feOffset
     dx="0"
     dy="0"
     result="offset"
     id="feOffset559-4-5" /><feComposite
     in="SourceGraphic"
     in2="offset"
     operator="over"
     result="composite2"
     id="feComposite561-9-1" /></filter><filter
   style="color-interpolation-filters:sRGB"
   inkscape:label="Drop Shadow"
   id="filter563-1"
   x="0"
   y="0"
   width="1"
   height="1"><feFlood
     flood-opacity="0.498039"
     flood-color="rgb(255,255,255)"
     result="flood"
     id="feFlood553-5" /><feComposite
     in="flood"
     in2="SourceGraphic"
     operator="in"
     result="composite1"
     id="feComposite555-0" /><feGaussianBlur
     in="composite1"
     stdDeviation="0"
     result="blur"
     id="feGaussianBlur557-7" /><feOffset
     dx="0"
     dy="0"
     result="offset"
     id="feOffset559-2" /><feComposite
     in="SourceGraphic"
     in2="offset"
     operator="over"
     result="composite2"
     id="feComposite561-1" /></filter><filter
   style="color-interpolation-filters:sRGB"
   inkscape:label="Drop Shadow"
   id="filter563-2-0"
   x="0"
   y="0"
   width="1"
   height="1"><feFlood
     flood-opacity="0.498039"
     flood-color="rgb(255,255,255)"
     result="flood"
     id="feFlood553-1-64" /><feComposite
     in="flood"
     in2="SourceGraphic"
     operator="in"
     result="composite1"
     id="feComposite555-5-7" /><feGaussianBlur
     in="composite1"
     stdDeviation="0"
     result="blur"
     id="feGaussianBlur557-6-4" /><feOffset
     dx="0"
     dy="0"
     result="offset"
     id="feOffset559-4-3" /><feComposite
     in="SourceGraphic"
     in2="offset"
     operator="over"
     result="composite2"
     id="feComposite561-9-6" /></filter><filter
   style="color-interpolation-filters:sRGB"
   inkscape:label="Drop Shadow"
   id="filter563-67"
   x="0"
   y="0"
   width="1"
   height="1"><feFlood
     flood-opacity="0.498039"
     flood-color="rgb(255,255,255)"
     result="flood"
     id="feFlood553-7" /><feComposite
     in="flood"
     in2="SourceGraphic"
     operator="in"
     result="composite1"
     id="feComposite555-6" /><feGaussianBlur
     in="composite1"
     stdDeviation="0"
     result="blur"
     id="feGaussianBlur557-8" /><feOffset
     dx="0"
     dy="0"
     result="offset"
     id="feOffset559-5" /><feComposite
     in="SourceGraphic"
     in2="offset"
     operator="over"
     result="composite2"
     id="feComposite561-7" /></filter><clipPath
   clipPathUnits="userSpaceOnUse"
   id="clipPath701"><path
     id="path703"
     style="display:none;fill:#ffffff;stroke-width:0.65074;filter:url(#filter563-67)"
     class="st0"
     d="m 170.53536,119.17285 c -3.54446,0.0694 -7.14018,1.42738 -9.5028,4.13902 -3.08726,3.27644 -3.97623,8.35532 -2.39955,12.53871 -2.08203,0.29688 -4.16406,0.59375 -6.24609,0.89063 2.09649,1.12866 4.24722,2.1769 6.3147,3.34603 0.7418,0.33571 0.36665,0.63035 -0.23244,0.84015 -1.89063,0.95366 -3.72353,2.06244 -5.20063,3.60127 -1.43385,1.31825 -2.8677,2.63649 -4.30155,3.95474 2.08724,-0.38542 4.17448,-0.77084 6.26172,-1.15625 -2.10709,2.32914 -3.50872,5.32396 -3.68658,8.48044 -0.25031,2.14584 -0.50062,4.29168 -0.75092,6.43753 0.52018,-0.67123 1.04036,-1.34245 1.56054,-2.01368 -0.2952,4.47755 1.24572,9.1392 4.55943,12.24107 1.77799,1.62305 3.57797,3.22291 5.3644,4.83706 -0.32747,-1.13672 -0.65495,-2.27344 -0.98242,-3.41016 4.75832,3.08816 11.15465,3.0978 16.10049,0.43666 2.832,-1.50329 5.15352,-3.84587 6.91709,-6.50111 -0.32032,2.88492 1.19021,5.82055 3.68939,7.28098 1.67062,0.98355 3.63949,1.24588 5.45173,1.87729 1.06754,0.31704 2.13508,0.63407 3.20263,0.9511 -0.17946,-0.30982 -1.32908,-1.1183 -0.39005,-0.8438 3.23099,0.34382 6.6703,-0.69798 9.03458,-2.95502 1.31358,-1.60613 2.38721,-3.40299 3.60808,-5.08281 0.14061,-0.34241 1.20465,-1.42902 0.63028,-1.19521 -0.38552,0.0999 -1.41323,0.79612 -0.7911,-0.0228 1.37627,-2.68893 0.9155,-6.10385 -1.00621,-8.40885 -2.04118,-2.54282 -5.48514,-3.86784 -8.69992,-3.43129 -0.52473,0.0156 -1.18188,0.6201 -1.60869,0.20743 -1.74394,-1.26538 -3.65717,-2.28965 -5.46838,-3.45908 0.49024,1.53255 0.98047,3.0651 1.4707,4.59765 0.4277,0.0878 0.0129,0.49584 0.25782,1.02539 -0.0236,0.69204 -0.87835,0.73957 -1.27735,0.32422 -0.29677,-0.51677 -1.12625,-0.43126 -1.07914,-0.80682 -0.49395,-0.55275 -1.21342,-1.00935 -1.7939,-1.52521 1.2774,-2.73491 2.86404,-5.38116 4.97656,-7.55273 1.57346,-1.3549 4.1278,-1.53927 5.73085,-0.1279 0.50971,0.61842 0.9942,0.32145 1.47382,-0.15258 1.55314,-1.21986 3.60166,-1.59806 5.52618,-1.74223 1.69524,-0.0117 3.30833,0.64054 4.9641,0.93457 0.97017,0.22209 1.94034,0.44417 2.91052,0.66626 -1.87309,-1.95099 -3.61106,-4.03778 -5.57617,-5.89648 -1.94178,-1.64879 -4.30902,-2.83575 -6.8379,-3.22266 0.64714,-0.42383 1.29428,-0.84765 1.94141,-1.27148 -2.35555,-0.018 -4.71566,-0.16458 -7.06836,-0.10157 -0.43634,0.0557 -0.86716,0.15242 -1.28515,0.28907 0.10575,-0.35761 1.14408,-1.55902 0.38132,-1.13078 -2.00141,0.95417 -4.09593,1.73146 -6.03367,2.80656 -2.07171,1.37041 -3.75796,3.27217 -5.04883,5.38281 -0.23958,-2.30729 -0.47916,-4.61458 -0.71875,-6.92187 -0.77112,1.74901 -1.55032,3.60991 -2.3164,5.28906 -0.30924,-1.15654 -0.94994,-2.22509 -1.61914,-3.17774 2.20627,-2.92241 3.61973,-6.62021 3.31445,-10.31835 -0.28912,-4.0349 -2.78654,-7.85645 -6.47905,-9.56914 -2.2373,-1.09478 -4.76889,-1.4721 -7.24165,-1.37813 z m 1.11523,8.89648 c 0.80605,-0.002 -0.27649,0.83012 -0.39181,1.22933 -0.49769,1.0214 -0.43973,0.22217 -0.41387,-0.47189 -0.14977,-0.74233 0.15743,-0.80537 0.80568,-0.75744 z m 6.47656,15.35547 c -0.45555,0.50148 -0.83414,0.86527 -0.51663,-0.002 0.0166,-0.38144 0.35324,-0.0755 0.51663,0.002 z m 4.61328,11.89063 c -0.0703,0.59473 -0.11521,1.40876 -0.81567,0.72891 0.27115,-0.21072 0.51955,-0.63677 0.81567,-0.72891 z m -6.86132,0.40625 c 0.2444,1.32136 0.9688,2.52097 1.93164,3.44531 -1.37691,1.9735 -3.1268,3.92739 -5.48828,4.67187 -2.02589,0.54585 -4.12531,-0.89171 -4.72266,-2.82812 -0.40195,-1.14898 -0.45475,-2.40318 -0.23633,-3.5957 1.55524,0.19122 3.13358,0.79355 4.69042,0.29059 1.41453,-0.32909 2.74313,-1.06694 3.82521,-1.98395 z m -11.17188,1.24414 c -0.69726,0.41081 -1.39453,0.82161 -2.0918,1.23242 0.0307,-0.46963 -0.51931,-1.51115 -0.10355,-1.6016 0.73179,0.12306 1.46357,0.24612 2.19535,0.36918 z m 35.11719,3.4668 c 0.58059,0.48795 0.63035,1.49493 -0.0547,1.91406 0.0717,-0.67908 0.0342,-1.36633 -0.0762,-2.03906 l 0.0723,0.0691 z" /><path
     id="lpe_path-effect705"
     style="fill:#ffffff;stroke-width:0.65074;filter:url(#filter563-67)"
     class="powerclip"
     d="m 129.6083,113.06908 h 67.6997 v 77.1 h -67.6997 z m 40.92706,6.10377 c -3.54446,0.0694 -7.14018,1.42738 -9.5028,4.13902 -3.08726,3.27644 -3.97623,8.35532 -2.39955,12.53871 -2.08203,0.29688 -4.16406,0.59375 -6.24609,0.89063 2.09649,1.12866 4.24722,2.1769 6.3147,3.34603 0.7418,0.33571 0.36665,0.63035 -0.23244,0.84015 -1.89063,0.95366 -3.72353,2.06244 -5.20063,3.60127 -1.43385,1.31825 -2.8677,2.63649 -4.30155,3.95474 2.08724,-0.38542 4.17448,-0.77084 6.26172,-1.15625 -2.10709,2.32914 -3.50872,5.32396 -3.68658,8.48044 -0.25031,2.14584 -0.50062,4.29168 -0.75092,6.43753 0.52018,-0.67123 1.04036,-1.34245 1.56054,-2.01368 -0.2952,4.47755 1.24572,9.1392 4.55943,12.24107 1.77799,1.62305 3.57797,3.22291 5.3644,4.83706 -0.32747,-1.13672 -0.65495,-2.27344 -0.98242,-3.41016 4.75832,3.08816 11.15465,3.0978 16.10049,0.43666 2.832,-1.50329 5.15352,-3.84587 6.91709,-6.50111 -0.32032,2.88492 1.19021,5.82055 3.68939,7.28098 1.67062,0.98355 3.63949,1.24588 5.45173,1.87729 1.06754,0.31704 2.13508,0.63407 3.20263,0.9511 -0.17946,-0.30982 -1.32908,-1.1183 -0.39005,-0.8438 3.23099,0.34382 6.6703,-0.69798 9.03458,-2.95502 1.31358,-1.60613 2.38721,-3.40299 3.60808,-5.08281 0.14061,-0.34241 1.20465,-1.42902 0.63028,-1.19521 -0.38552,0.0999 -1.41323,0.79612 -0.7911,-0.0228 1.37627,-2.68893 0.9155,-6.10385 -1.00621,-8.40885 -2.04118,-2.54282 -5.48514,-3.86784 -8.69992,-3.43129 -0.52473,0.0156 -1.18188,0.6201 -1.60869,0.20743 -1.74394,-1.26538 -3.65717,-2.28965 -5.46838,-3.45908 0.49024,1.53255 0.98047,3.0651 1.4707,4.59765 0.4277,0.0878 0.0129,0.49584 0.25782,1.02539 -0.0236,0.69204 -0.87835,0.73957 -1.27735,0.32422 -0.29677,-0.51677 -1.12625,-0.43126 -1.07914,-0.80682 -0.49395,-0.55275 -1.21342,-1.00935 -1.7939,-1.52521 1.2774,-2.73491 2.86404,-5.38116 4.97656,-7.55273 1.57346,-1.3549 4.1278,-1.53927 5.73085,-0.1279 0.50971,0.61842 0.9942,0.32145 1.47382,-0.15258 1.55314,-1.21986 3.60166,-1.59806 5.52618,-1.74223 1.69524,-0.0117 3.30833,0.64054 4.9641,0.93457 0.97017,0.22209 1.94034,0.44417 2.91052,0.66626 -1.87309,-1.95099 -3.61106,-4.03778 -5.57617,-5.89648 -1.94178,-1.64879 -4.30902,-2.83575 -6.8379,-3.22266 0.64714,-0.42383 1.29428,-0.84765 1.94141,-1.27148 -2.35555,-0.018 -4.71566,-0.16458 -7.06836,-0.10157 -0.43634,0.0557 -0.86716,0.15242 -1.28515,0.28907 0.10575,-0.35761 1.14408,-1.55902 0.38132,-1.13078 -2.00141,0.95417 -4.09593,1.73146 -6.03367,2.80656 -2.07171,1.37041 -3.75796,3.27217 -5.04883,5.38281 -0.23958,-2.30729 -0.47916,-4.61458 -0.71875,-6.92187 -0.77112,1.74901 -1.55032,3.60991 -2.3164,5.28906 -0.30924,-1.15654 -0.94994,-2.22509 -1.61914,-3.17774 2.20627,-2.92241 3.61973,-6.62021 3.31445,-10.31835 -0.28912,-4.0349 -2.78654,-7.85645 -6.47905,-9.56914 -2.2373,-1.09478 -4.76889,-1.4721 -7.24165,-1.37813 z m 1.11523,8.89648 c -0.64825,-0.0479 -0.95545,0.0151 -0.80568,0.75744 -0.0259,0.69406 -0.0838,1.49329 0.41387,0.47189 0.11532,-0.39921 1.19786,-1.23133 0.39181,-1.22933 z m 6.47656,15.35547 c -0.16339,-0.0775 -0.50003,-0.38344 -0.51663,-0.002 -0.31751,0.86727 0.0611,0.50348 0.51663,0.002 z m 4.61328,11.89063 c -0.29612,0.0921 -0.54452,0.51819 -0.81567,0.72891 0.70046,0.67985 0.74537,-0.13418 0.81567,-0.72891 z m -6.86132,0.40625 c -1.08208,0.91701 -2.41068,1.65486 -3.82521,1.98395 -1.55684,0.50296 -3.13518,-0.0994 -4.69042,-0.29059 -0.21842,1.19252 -0.16562,2.44672 0.23633,3.5957 0.59735,1.93641 2.69677,3.37397 4.72266,2.82812 2.36148,-0.74448 4.11137,-2.69837 5.48828,-4.67187 -0.96284,-0.92434 -1.68724,-2.12395 -1.93164,-3.44531 z m -11.17188,1.24414 c -0.73178,-0.12306 -1.46356,-0.24612 -2.19535,-0.36918 -0.41576,0.0905 0.13425,1.13197 0.10355,1.6016 0.69727,-0.41081 1.39454,-0.82161 2.0918,-1.23242 z m 35.11719,3.4668 -0.0586,-0.0559 -0.0723,-0.0691 c 0.1104,0.67273 0.1479,1.35998 0.0762,2.03906 0.68505,-0.41913 0.63529,-1.42611 0.0547,-1.91406 z" /></clipPath><clipPath
   clipPathUnits="userSpaceOnUse"
   id="clipPath1285"><path
     class="st0"
     d="m 170.808,169.76892 -7.1,8e-5 -3e-4,-32.4 v -15.5 h -4.2997 c -10.1,0 -14.7,-0.2 -18.3,-0.9 -3,-0.8 -5.7,-2.4 -5.7,-2.4 l -0.8,-0.5 0.2,0.9 c 0,0.3 0.8,7.1 8.9,13.1 1.5,1.2 2.7,2.3 2.7,6.2 v 36.5 c 0,3.9 -0.8,5 -2.6,6 -2,1.2 -6,3.5 -6,3.6 l -1.4,0.8 c 0,0 21.93313,-7e-5 32.8997,-8e-5 3.83333,-1e-5 9.58333,0 14.375,0 h 8.625 c 0,0 -1.81354,-5.07736 -2.40862,-7.7 -0.58481,-2.57732 -1.13058,-7.84747 -1.13058,-7.84747"
     id="path1287"
     style="fill:#072ae4;fill-opacity:1"
     sodipodi:nodetypes="ccccscccccsscccsscsc" /></clipPath></defs><sodipodi:namedview
   id="namedview21"
   pagecolor="#ffffff"
   bordercolor="#111111"
   borderopacity="1"
   inkscape:showpageshadow="0"
   inkscape:pageopacity="0"
   inkscape:pagecheckerboard="1"
   inkscape:deskcolor="#d1d1d1"
   showgrid="false"
   inkscape:zoom="5.0858896"
   inkscape:cx="34.113993"
   inkscape:cy="40.700844"
   inkscape:window-width="1920"
   inkscape:window-height="1009"
   inkscape:window-x="-8"
   inkscape:window-y="-8"
   inkscape:window-maximized="1"
   inkscape:current-layer="layer" />
<style
   type="text/css"
   id="style2">
	.st0{fill:#E40712;}
</style>
<path
   class="st0"
   d="m 170.8083,169.769 -7.1,8e-5 -3e-4,-32.4 v -15.5 h -4.2997 c -10.1,0 -14.7,-0.2 -18.3,-0.9 -3,-0.8 -5.7,-2.4 -5.7,-2.4 l -0.8,-0.5 0.2,0.9 c 0,0.3 0.8,7.1 8.9,13.1 1.5,1.2 2.7,2.3 2.7,6.2 v 36.5 c 0,3.9 -0.8,5 -2.6,6 -2,1.2 -6,3.5 -6,3.6 l -1.4,0.8 c 0,0 21.93313,-7e-5 32.8997,-8e-5 3.83333,-1e-5 9.58333,0 14.375,0 h 8.625 c 0,0 -1.81354,-5.07736 -2.40862,-7.7 -0.58481,-2.57732 -1.13058,-7.84747 -1.13058,-7.84747"
   id="path4-88"
   style="fill:#e40712"
   sodipodi:nodetypes="ccccscccccsscccsscsc"
   clip-path="url(#clipPath701)"
   inkscape:path-effect="#path-effect705"
   inkscape:original-d="m 170.8083,169.769 -7.1,8e-5 -3e-4,-32.4 v -15.5 h -4.2997 c -10.1,0 -14.7,-0.2 -18.3,-0.9 -3,-0.8 -5.7,-2.4 -5.7,-2.4 l -0.8,-0.5 0.2,0.9 c 0,0.3 0.8,7.1 8.9,13.1 1.5,1.2 2.7,2.3 2.7,6.2 v 36.5 c 0,3.9 -0.8,5 -2.6,6 -2,1.2 -6,3.5 -6,3.6 l -1.4,0.8 c 0,0 21.93313,-7e-5 32.8997,-8e-5 3.83333,-1e-5 9.58333,0 14.375,0 h 8.625 c 0,0 -1.81354,-5.07736 -2.40862,-7.7 -0.58481,-2.57732 -1.13058,-7.84747 -1.13058,-7.84747"
   transform="translate(-134.6083,-114.56908)" />
<path
   class="st0"
   d="m 63.11458,28.93303 c -3.64414,-0.52059 -9.17543,1.95222 -12.03869,5.46621 0.58567,-2.34266 3.12355,-6.18203 6.2471,-7.93902 0,0 -1.56177,1.95222 -0.91103,2.27759 0.97611,0.52059 3.51399,-3.514 6.83276,-3.64415 0,0 -2.47281,1.17134 -1.95221,2.08237 0.39044,0.58567 2.08236,-0.78089 4.88054,-0.78089 3.514,0 6.63755,2.14744 8.13425,3.83937 -2.47281,-0.71582 -7.02799,0.52059 -8.39454,1.69192 -2.08237,-1.56178 -6.05188,-1.36655 -8.32947,1.30148 -2.86325,3.2537 -4.62025,7.02799 -5.07577,8.19932 -0.97611,-0.78089 -1.88714,-1.4967 -2.47281,-1.95222 -0.52059,-0.39044 -0.97611,-0.58567 -1.4967,-0.78089 2.73311,-3.83936 8.19932,-9.5008 14.57657,-9.76109 z M 24.98123,17.93553 c -0.39044,-4.62025 1.757,-7.15814 2.73311,-8.19932 2.14744,-2.27759 5.07577,-3.51399 9.5008,-3.31877 6.83277,0.39044 10.15154,5.07577 10.15154,10.08646 0,2.66803 -1.36656,6.18203 -3.31877,8.39454 L 43.65746,24.508 c -1.30148,-1.17133 -3.12355,-2.66803 -4.29488,-4.42503 2.34266,-3.44892 1.36655,-8.78499 -2.86325,-8.78499 -2.66804,0 -4.81548,2.73311 -3.90444,6.05188 -0.39045,1.4967 -0.58567,3.44892 -0.32537,4.88055 -3.05848,-1.56178 -4.03459,-3.64414 -4.62025,-5.46621 -0.78089,1.56177 -1.30148,3.70921 -0.71582,5.79158 0.13015,0.19522 -1.62685,-1.36655 -1.95222,-4.62025 z m 1.757,8.32947 c -0.32537,1.10625 -4.29488,2.27758 -6.2471,4.2298 2.92833,-0.58566 4.29488,-0.13015 4.81547,1.10626 0.32537,0.91104 -0.13014,2.08237 -0.32537,3.44892 0.97611,-1.10626 4.29489,-3.31877 6.7677,-3.83936 -0.58567,-0.19523 -2.08237,-0.5206 -2.66804,-0.5206 1.757,-2.08236 5.66144,-2.7331 7.80888,-2.27758 -1.36655,-0.13015 -4.09966,0.71581 -5.20592,1.56177 0.97611,0.19522 1.88715,0.39044 2.66804,0.71581 -1.30148,0.5206 -2.92833,2.08237 -3.514,3.70922 1.69192,-1.17133 5.07577,-0.91103 5.66144,1.56178 0.39044,1.69192 -0.78089,3.12355 -1.36656,3.44892 0.52059,0.13014 1.69193,0 2.14744,-0.32537 -0.19522,0.71581 -1.17133,1.88714 -1.88714,2.08236 1.757,0 4.29488,-1.17133 5.01069,-2.86325 0,0 -1.10625,0.39044 -1.56177,-0.13015 -0.52059,-0.52059 0.19522,-2.66803 0.19522,-2.66803 0,0 -0.71581,0.91103 -1.30148,0.39044 -0.58566,-0.58566 0.19522,-2.53788 0.52059,-2.92833 -0.58566,-0.19522 -2.14744,-0.39044 -2.86325,-0.32537 1.95222,-0.71581 6.37725,-1.10625 6.83276,-0.19522 0.39045,0.71582 -0.58566,2.08237 -0.58566,2.08237 0.78089,-0.13015 3.05848,0 3.83936,0.91103 0.78089,0.97611 0.32537,2.27759 0.32537,2.27759 1.757,-0.91103 3.31877,-3.64414 2.92833,-6.37725 -0.19522,0.58567 -0.97611,1.49671 -1.757,1.69193 0.13015,-0.91104 -0.58566,-1.36656 -1.17133,-1.56178 0.32537,-1.69192 -0.39044,-3.83936 -2.86325,-6.18202 -2.08237,-2.08237 -5.98681,-4.81548 -5.79158,-8.39455 -0.58567,0.78089 -1.10626,3.05848 -0.5206,4.29489 1.69193,1.95221 5.27099,4.09966 6.18203,7.41843 -1.56177,-3.90444 -9.17543,-6.96292 -8.91513,-12.29898 -0.97611,0.97611 -1.56178,4.81547 -0.78089,6.76769 1.4967,0.91104 2.73311,2.34266 2.92833,3.70922 -1.36656,-3.12355 -6.96292,-3.70922 -8.52469,-7.41843 -0.39044,1.36655 -0.19522,3.05847 0.58566,4.09965 0,0 -1.36655,-0.52059 -4.29488,-0.39044 1.04119,0.32537 3.12355,2.08237 2.92833,3.18863 z m 15.81297,4.4901 c -1.69192,0 -2.14744,-1.30148 -2.53788,-2.66803 1.95222,0.84596 2.53788,2.66803 2.53788,2.66803 z m 21.34426,25.50899 c 1.17134,1.10626 4.03459,1.88715 5.46622,1.17133 -0.91104,1.56178 -5.0107,3.70922 -8.78499,2.73311 -3.64414,-0.97611 -5.27099,-4.42503 -5.27099,-6.63754 -1.757,1.75699 -1.30148,4.4901 0,5.66143 -1.36655,-0.39044 -3.51399,-1.88714 -3.90444,-4.4901 -0.32537,-2.27759 0.97611,-4.88055 -1.36655,-6.96292 -1.36655,-1.30148 -3.64414,-3.05847 -5.01069,-4.09966 -2.92833,-2.27759 -1.88715,-4.03458 -2.47282,-5.20591 -0.52059,-0.97611 -1.75699,-1.4967 -2.47281,-2.34267 -0.78088,-0.91103 -0.71581,-2.14744 -0.32537,-2.86325 -0.13014,0.97611 0.58567,1.757 1.56178,2.14744 1.10626,0.39044 1.95222,0.13015 2.92833,0.58567 1.10625,0.71581 0.58566,2.34266 1.36655,3.05847 0.71581,0.52059 2.53789,-0.19522 4.03459,1.10626 1.56177,1.30148 5.01069,4.09966 6.44232,5.27099 2.66803,2.14744 5.40114,-0.32537 4.4901,-2.86325 2.73311,1.56177 3.05848,6.05187 0.78089,7.61365 2.14744,0.52059 5.9868,-0.52059 5.9868,-3.51399 0,-1.88715 -1.75699,-3.2537 -2.92832,-3.44892 4.42503,-0.39045 8.19932,2.66803 8.19932,6.57247 -0.13015,3.96951 -4.16474,7.09306 -8.71992,6.50739 z m -14.57656,-8.0041 0.32537,0.32537 c -2.34267,4.81548 -6.7677,10.93243 -15.16224,10.93243 -3.05847,0 -5.79158,-1.10626 -7.7438,-2.53788 -0.71581,-0.5206 -1.30148,-1.10626 -1.757,-1.757 v 0 0 c -0.32537,-0.39044 -0.58566,-0.71581 -0.91103,-1.10626 -0.39044,-0.52059 -0.71581,-0.52059 -0.91104,-0.19522 -0.39044,0.58567 0.32537,2.47281 0.32537,2.47281 -6.63754,-6.2471 -3.25369,-15.42253 -3.12355,-15.81297 0.39045,-1.17133 0,-1.36656 -0.39044,-1.17133 -0.58567,0.19522 -1.30148,1.17133 -1.30148,1.17133 0.52059,-5.59636 5.66143,-8.98021 5.66143,-8.98021 l 0.13015,0.13015 c 0.58567,0.91103 -0.32537,1.95222 -0.39044,5.46621 0.97611,-1.36655 4.81547,-4.03458 6.96291,-4.81547 -0.71581,0.91103 -1.30148,2.14744 -1.30148,4.03458 0,0 1.56178,-1.75699 3.514,-1.75699 0.52059,0 0.97611,0.13014 1.36655,0.32537 -7.41843,7.22321 -4.29488,16.20341 1.95222,16.20341 3.51399,0 7.02799,-3.90443 8.52469,-6.57247 1.10626,0.97611 2.92833,2.53789 4.22981,3.64414 z"
   id="path4-8-9-2"
   style="fill:#e40712;stroke-width:0.65074;filter:url(#filter563-2)"
   sodipodi:nodetypes="ccccccsccccccccccscccsccccccccccccccccccccccccccccccccccccccccccccccccccccccccccccccccscccccscscscccscccccccscscc" /></svg>
